<?xml version="1.0" encoding="UTF-8"?>
<svg id="Camada_1" data-name="Camada 1" xmlns="http://www.w3.org/2000/svg" viewBox="0 0 235.03 61.96">
  <defs>
    <style>
      .cls-1 {
        fill: #0fff53;
      }

      .cls-2 {
        fill: #e5e5e5;
      }

      .cls-3 {
        fill: gray;
      }
    </style>
  </defs>
  <path class="cls-2" d="M61.85,56.21v-9.3c0-1.56.62-4.96-9.37-4.96h-14.92v4.34l11.75-.02c1.54,0,2.69.09,3.53.28.94.21,1.45.41,1.68.69.22.27.33.61.33,1.01,0,.46-.21,1.25-1.62,1.41l-8.98.82c-2.85.25-4.91.81-6.12,1.67-1.17.83-1.74,2.02-1.74,3.65v.25c0,1.69.68,3.05,2.09,4.16,1.41,1.12,3.64,1.69,6.61,1.69h.47c2.46,0,4.41-.3,5.82-.91,1.39-.6,2.38-1.25,2.94-1.93l.6-.72.15,1.32c.26,1.56,1.11,2.29,2.68,2.29h6.18v-4.37h-.63c-.92,0-1.44-.5-1.44-1.38M54.85,53.46c0,1.32-.73,2.5-2.19,3.51-1.4.97-3.22,1.46-5.39,1.46-1.37,0-2.35-.24-3-.73-.66-.51-1-1.13-1-1.89,0-.67.3-1.2.87-1.52.49-.28,1.29-.5,2.45-.67l8.26-1.25v1.09Z"/>
  <path class="cls-2" d="M104.46,47.64c1.63,0,2.31.06,2.95.28.93.32,1.79,1.11,1.96,1.79l.11.4h-10.32c-.26,0,.67-1.21,1.1-1.53.96-.71,1.94-.93,4.2-.94ZM104.08,43.06c-1.55.02-3.12.15-4.11.38-2.36.55-4.05,1.43-5.47,2.85-1.75,1.76-2.53,3.71-2.53,6.33,0,5.1,3.45,8.34,9.71,9.13,3.84.48,8.48-.15,10.8-1.46.91-.51,2.16-1.76,2.57-2.55.14-.28.33-.85.43-1.28.27-1.21.25-1.22-3.02-1.22h-2.81l-.4.61c-.22.34-.67.75-1,.91-1.46.71-5.11.79-6.84.13-1.24-.47-3.32-2.83-2.44-2.83h16.41c.27-.2.3-.58.21-2.2-.14-2.64-.72-4.18-2.15-5.75-1.25-1.36-2.84-2.18-5.38-2.76-.92-.21-2.45-.3-4-.29ZM135.05,43.03c-1.72,0-3.45.25-4.84.77-1.74.76-2.88,1.96-4.07,3.29v-3.52h-6.68v18.34h6.68v-10.19c0-2.65,3.09-2.9,5.03-3.16,2.18-.27,4.22.15,5.22,1.09,1.02.96,1.16,1.26,1.17,6.45v5.81h6.67v-11.07c-.04-2.37-.09-2.68-.36-3.34-.47-1.16-1.82-2.66-2.94-3.28-1.47-.8-3.67-1.21-5.88-1.2ZM84.38,36.28h-3.27v25.62h7.01v-25.62h-3.75Z"/>
  <rect class="cls-2" x="68.7" y="44.93" width="7" height="16.98"/>
  <rect class="cls-2" x="68.7" y="37.28" width="7" height="4.23"/>
  <path class="cls-2" d="M26.96,49.67l-1.34-.38,1.32-.43c3.06-.99,4.54-2.71,4.54-5.26v-.42c0-2.09-.86-3.62-2.62-4.66-1.81-1.07-4.59-1.62-8.27-1.62H7.31v5.02h12.79c1.22,0,2.15.27,2.77.8.63.54.95,1.26.95,2.16s-.32,1.61-.95,2.16c-.62.53-1.55.8-2.77.8H7.31v-5.91H0v19.96h7.31v-9.16h11.07c2.11,0,3.57.39,4.48,1.18.91.8,1.37,2.07,1.37,3.79v4.2h7.35v-6.69c0-1.48-.41-2.64-1.25-3.55-.85-.92-1.99-1.59-3.38-1.98"/>
  <path class="cls-3" d="M222.71,48.29c2.13,0,2.45.04,3.18.38,1.64.76,2.28,1.75,2.28,3.62,0,.67-.1,1.5-.22,1.85-.3.87-1.09,1.72-1.97,2.12-1,.45-4.7.57-6.05.2-2.5-.7-3.68-2.32-3.27-4.48.3-1.55,1.05-2.46,2.7-3.23.93-.43,1.09-.46,3.35-.46ZM196.28,47.58c1.09,0,2.16.11,2.92.38.85.3,1.71,1.1,1.87,1.76l.11.45h-5.17c-2.84,0-5.16-.06-5.16-.14,0-.39,1.03-1.48,1.68-1.79.9-.42,2.34-.65,3.75-.66ZM179.69,43.45c-1.52,0-3.06.07-3.19.24-.1.12-1.03,2.56-2.08,5.43s-1.95,5.31-2.02,5.44c-.12.23-.24-.03-3.19-7.64-.68-1.75-1.32-3.23-1.43-3.31-.11-.07-1.59-.14-3.27-.14-3,0-3.07.01-3.3.37-.13.2-1.12,2.63-2.21,5.41-1.09,2.78-2.03,5.16-2.11,5.29-.09.16-.77-1.52-2.07-5.12-1.06-2.95-2.04-5.5-2.18-5.66-.21-.25-.59-.28-3.39-.28-3.19,0-3.67.05-3.67.38,0,.39,6.54,17.33,6.74,17.45.11.07,1.88.14,3.91.14,2.78,0,3.74-.05,3.86-.2.09-.11,1.02-2.48,2.05-5.27,1.03-2.79,1.93-5.07,2-5.07s.96,2.28,1.99,5.06c1.02,2.78,1.94,5.14,2.04,5.26.14.17,1.03.22,3.96.22,2.08,0,3.87-.06,3.98-.14.29-.19,6.79-17.3,6.67-17.6-.06-.17-1.57-.25-3.09-.26ZM195.75,43.07c-3.03.01-4.92.38-6.95,1.36-1.54.74-3.16,2.16-3.95,3.48-1.07,1.79-1.47,4.72-.93,6.98.89,3.78,4.23,6.2,9.47,6.86,3.89.49,8.62-.18,10.95-1.54.8-.46,2.04-1.74,2.42-2.47.14-.27.34-.85.43-1.28.27-1.21.25-1.22-3.02-1.22h-2.81l-.39.61c-.22.34-.67.75-1,.91-1.46.71-5.11.79-6.84.13-.5-.19-1.15-.58-1.45-.87-.5-.49-.99-1.35-.99-1.75,0-.11,2.62-.17,8.02-.17s8.13-.05,8.34-.17c.27-.14.31-.35.31-1.4,0-4.3-1.95-7.29-5.63-8.61-1.88-.67-3.23-.86-5.97-.85ZM213.04,36.12c-2.86,0-3.07.02-3.23.31-.11.21-.16,4.36-.16,12.35s.05,12.14.16,12.35c.16.29.37.32,3.23.32,2.17,0,3.12-.05,3.26-.2.11-.11.2-.62.2-1.16v-.97l.61.56c1.24,1.12,2.79,1.78,4.8,2.07,2.34.34,5.16.1,7.23-.61,2.72-.94,4.56-2.8,5.45-5.53.35-1.06.41-1.59.43-3.3.02-3.07-.55-4.65-2.34-6.46-1.47-1.48-3.48-2.32-6.45-2.7-3.71-.47-6.91.28-8.91,2.07l-.82.74v-4.72c0-3.45-.05-4.77-.2-4.91-.14-.14-1.09-.2-3.26-.2Z"/>
  <path class="cls-1" d="M185.32,26.96c-1.77-1.15-6.99-4.19-14.62-5.74-3.29-4.33-6.64-10.09-9.26-14.59C157.5-.11,153.56-.2,153.1.08c-.46.28,0,2.53,0,4.03s.31,13.1-4.25,19.84c-2.14,3.16-5.9,4.69-9.3,5.42h-1.2c3.57-1.3,8.09-3.71,10.48-8-6.96,1.25-11.64,3.15-12.03,3.33-.62.28-2.47,1.03-3.71.28-1.24-.75-4.71-2.71-5.1-1.69-.36.97-.73,3.27-1.6,4-2.98.48-6.94,1.17-12.12,2.14-15.34,2.87-22.34,6.24-22.34,6.24,0,0,23.98-5.24,31.91-6.24.3-.04.58-.07.86-.11.31.11.81.19,1.56.23,3.94.18,15.01,2.8,21.11,4.32,9.27,2.32,24.91,2.74,31.42,0,3.15-1.32,5.27-2.94,6.34-4.1h0,0c.54-.58.82-1.02.84-1.14,0-.04.01-.08.02-.12.07-.64-.22-1.25-.68-1.55"/>
  <path class="cls-1" d="M143.37,20.26c.16.97.17,2.07.17,2.07l6.86-3.26s-5.79-2.43-6.64-2.52c-.85-.09-1.54.84-1.23,1.26.31.43.7,1.48.85,2.45"/>
</svg>