<svg width="83" height="72" viewBox="0 0 83 72" fill="none" xmlns="http://www.w3.org/2000/svg">
<g clip-path="url(#clip0_2_215)">
<path d="M1.1964 69.0303L41.7692 0V0.920602L19.1124 55.9786L36.8789 63.4622L1.1964 69.0303Z" fill="#1D1C36"/>
<path d="M83 71.7773H82.4915L79.5604 68.0503L45.4481 24.5741L30.1342 36.0668L43.0703 2.64302L82.3868 70.723L83 71.7773Z" fill="#1D1C36"/>
<path d="M57.6065 43.8326L60.1189 63.0761L0.284144 71.1982L0 71.6882L80.5773 72L57.6065 43.8326Z" fill="#1D1C36"/>
<path d="M80.996 69.2085L45.5677 23.8763L31.0465 34.7899L31.2559 34.2553L43.1301 3.45968L80.0389 67.5306L80.996 69.2085Z" fill="#5652A3"/>
<path d="M79.6501 71.5397L4.81549 71.1685H3.15549L60.5825 63.3434L58.2645 45.451L58.9076 46.2528L79.6501 71.5397Z" fill="#5652A3"/>
<path d="M18.6488 56.2013L35.4732 63.2543L34.6207 63.3879L2.00396 68.5552L39.4362 4.78119L40.2887 3.32605L18.6488 56.2013Z" fill="#5652A3"/>
<path d="M18.6488 56.2013L35.4732 63.2543L34.6207 63.3879L11.8742 62.007L39.4362 4.78119L40.2886 3.32605L18.6488 56.2013Z" fill="#2B2A52"/>
<path d="M68.8227 66.2388L4.81549 71.1685H3.15549L60.5825 63.3434L58.2645 45.451L58.9076 46.2528L68.8227 66.2388Z" fill="#2B2A52"/>
<path d="M80.996 69.2085L45.5677 23.8763L31.0465 34.7899L31.2559 34.2553L43.9227 15.2939L80.0389 67.5306L80.996 69.2085Z" fill="#2B2A52"/>
</g>
<defs>
<clipPath id="clip0_2_215">
<rect width="83" height="72" fill="white"/>
</clipPath>
</defs>
</svg>
