<?xml version="1.0" encoding="UTF-8"?>
<svg id="Camada_1" data-name="Camada 1" xmlns="http://www.w3.org/2000/svg" viewBox="0 0 137.26 102.12">
  <defs>
    <style>
      .cls-1 {
        fill: #0fff53;
      }
    </style>
  </defs>
  <path class="cls-1" d="M75.05,50.16c.23,1.41.24,3.02.24,3.02l10.01-4.76s-8.45-3.54-9.69-3.67c-1.24-.14-2.25,1.21-1.8,1.84.45.62,1.01,2.16,1.24,3.58"/>
  <path class="cls-1" d="M136.25,59.93c-2.58-1.68-10.19-6.11-21.34-8.38-4.8-6.32-9.68-14.73-13.51-21.28-5.75-9.84-11.49-9.97-12.16-9.56-.67.41,0,3.69,0,5.88s.45,19.12-6.2,28.95c-3.12,4.62-8.61,6.85-13.56,7.92h-1.75c5.2-1.9,11.8-5.42,15.29-11.68-10.15,1.83-16.98,4.6-17.55,4.86-.9.41-3.61,1.5-5.41.41s-6.87-3.96-7.43-2.46c-.53,1.41-1.06,4.77-2.35,5.84-4.35.71-10.13,1.71-17.68,3.12C10.21,67.73,0,72.65,0,72.65c0,0,35-7.65,46.56-9.11.44-.05.85-.11,1.26-.16.46.16,1.19.27,2.28.32,5.74.27,21.86,4.27,30.79,6.3,11.57,2.63,36.34,4,45.85,0,4.59-1.93,7.69-4.3,9.24-5.98h0,0c.78-.85,1.2-1.48,1.23-1.66.01-.06.02-.12.03-.18.1-.93-.32-1.81-1-2.25"/>
  <path class="cls-1" d="M27.57,70.03l-5.77,1.39c7.87,18.07,25.88,30.7,46.84,30.7,19.46,0,36.38-10.89,44.99-26.9-2.27.27-4.66.34-6.99.37-8.05,12.45-22.07,20.7-38,20.7-18.2,0-33.89-10.75-41.07-26.25ZM68.64,0C40.43,0,17.57,22.86,17.57,51.06c0,4.27.53,8.41,1.51,12.37l5.6-1.67c-.83-3.43-1.27-7.02-1.27-10.7,0-24.98,20.25-45.22,45.23-45.22,22.57,0,41.28,16.54,44.67,38.16l2.59,3.22,3.76,1.69C118.52,21.71,96.12,0,68.64,0Z"/>
</svg>